<svg width="64" height="64" viewBox="0 0 64 64" fill="none" xmlns="http://www.w3.org/2000/svg">
  <rect width="64" height="64" rx="14" fill="#5E7A5C"/>
  <g transform="translate(13 13) scale(0.6)" fill="none" stroke="#FAFAF8" stroke-width="7" stroke-linecap="round" stroke-linejoin="round">
    <path d="M32 19 C 27 12 18 11 12.5 16 C 6 22 6 32 8 40 C 10.5 50 20 58 32 58 C 44 58 53.5 50 56 40 C 58 32 58 22 51.5 16 C 46 11 37 12 32 19 Z"/>
    <path d="M32 19 C 33 13 33.5 11 35 8"/>
    <path d="M35.5 9 C 41 4 48 5 48.5 9.5 C 45.5 13.5 39 13.5 35.5 9 Z"/>
  </g>
</svg>
